<?xml version="1.0" standalone="no"?>
<!DOCTYPE svg PUBLIC "-//W3C//DTD SVG 20010904//EN"
 "http://www.w3.org/TR/2001/REC-SVG-20010904/DTD/svg10.dtd">
<svg version="1.0" xmlns="http://www.w3.org/2000/svg"
 width="1044.000000pt" height="1044.000000pt" viewBox="0 0 1044.000000 1044.000000"
 preserveAspectRatio="xMidYMid meet">
<metadata>
Created by potrace 1.11, written by Peter Selinger 2001-2013
</metadata>
<g transform="translate(0.000000,1044.000000) scale(0.100000,-0.100000)"
fill="#000000" stroke="none">
<path d="M265 9736 c-46 -45 -55 -46 -132 -16 -33 13 -48 -12 -45 -79 1 -31
11 -88 22 -126 11 -39 22 -77 25 -85 2 -8 4 -16 5 -17 2 -2 3 -6 5 -10 10 -38
138 -296 155 -313 3 -3 37 -52 75 -109 39 -58 75 -109 80 -115 6 -6 30 -38 55
-71 25 -33 47 -62 50 -65 3 -3 30 -34 60 -70 30 -35 62 -72 70 -80 8 -9 49
-54 91 -101 42 -46 108 -117 146 -157 l70 -74 -43 -85 c-94 -190 -132 -360
-129 -577 3 -182 31 -291 116 -446 16 -30 74 -106 104 -136 63 -65 185 -137
275 -163 25 -7 57 -17 72 -22 28 -8 345 -5 403 4 137 22 266 54 343 87 48 21
77 35 82 40 3 3 19 12 35 21 17 8 40 22 53 30 20 12 25 12 35 -1 7 -8 50 -47
97 -85 89 -73 114 -94 161 -135 16 -14 36 -31 45 -39 20 -17 3 -30 -34 -24
-15 2 -31 4 -37 4 -5 0 -190 -3 -410 -5 -664 -9 -992 -17 -1215 -30 -97 -6
-224 -17 -250 -21 -14 -2 -49 -7 -79 -10 -30 -4 -63 -9 -75 -11 -12 -3 -32 -7
-46 -10 -14 -3 -26 -9 -28 -15 -2 -5 -9 -9 -17 -9 -15 0 -38 -26 -41 -46 -1
-8 1 -14 6 -14 11 0 30 -57 30 -89 0 -15 -6 -35 -13 -46 -27 -39 -26 -61 3
-78 15 -9 38 -19 51 -21 13 -3 24 -5 24 -6 0 -1 14 -3 30 -5 17 -2 48 -6 70
-9 103 -14 166 -18 435 -30 204 -9 903 -18 1527 -20 555 -1 633 -3 634 -16 1
-8 3 -26 4 -40 4 -30 15 -233 19 -343 1 -42 5 -80 9 -83 3 -3 2 -17 -3 -30 -5
-13 -6 -24 -2 -24 4 0 7 -24 8 -53 1 -28 4 -101 7 -162 4 -60 9 -162 12 -225
3 -63 8 -146 10 -185 3 -38 7 -124 10 -190 2 -66 7 -149 10 -185 5 -67 12
-190 21 -390 3 -63 6 -128 7 -144 l2 -30 -115 1 c-63 0 -326 4 -585 8 -757 11
-1605 7 -1910 -9 -83 -5 -229 -17 -250 -21 -11 -2 -26 -4 -32 -4 -7 -1 -13 -7
-13 -14 0 -16 96 -42 230 -61 19 -3 45 -8 57 -10 13 -3 50 -6 83 -8 33 -2 60
-5 60 -8 0 -3 10 -6 23 -6 22 -1 109 -10 182 -18 62 -8 167 -18 200 -21 60 -5
171 -16 210 -20 72 -8 129 -14 190 -19 148 -13 213 -18 250 -21 82 -6 202 -15
255 -20 30 -3 84 -7 120 -10 36 -3 85 -7 110 -9 25 -2 83 -7 130 -11 47 -3
105 -8 130 -10 81 -7 224 -17 280 -20 30 -2 84 -6 120 -9 113 -10 234 -18 257
-17 12 0 25 -4 28 -10 9 -14 17 -226 19 -481 0 -115 5 -208 9 -208 5 0 6 -4 3
-8 -7 -12 -7 -51 -2 -412 7 -468 18 -730 41 -1020 4 -52 7 -77 20 -195 19
-171 22 -196 29 -230 3 -16 8 -50 12 -75 3 -25 7 -53 10 -62 3 -9 7 -27 9 -40
14 -71 18 -89 37 -153 22 -75 36 -101 49 -88 14 14 19 66 25 258 3 105 7 246
9 315 2 69 7 213 10 320 5 189 9 292 20 470 3 47 7 130 10 185 2 55 7 147 10
205 9 164 14 256 20 370 3 58 8 148 11 200 10 162 26 514 28 587 l1 41 75 -4
c41 -2 104 -6 140 -9 66 -6 182 -13 300 -20 36 -2 110 -7 165 -10 55 -4 129
-8 165 -10 36 -2 65 -4 65 -5 0 -1 32 -3 70 -5 170 -9 260 -14 260 -15 0 0 32
-3 70 -5 39 -2 108 -7 155 -10 47 -3 123 -7 170 -10 47 -3 117 -7 155 -10 73
-5 211 -13 355 -21 47 -2 112 -6 145 -8 33 -2 119 -7 190 -11 145 -8 178 -18
181 -55 7 -106 16 -224 20 -270 2 -30 6 -84 9 -120 5 -72 13 -167 19 -220 3
-19 7 -64 10 -100 7 -80 19 -178 32 -266 3 -17 6 -46 8 -65 6 -52 16 -131 21
-159 5 -27 13 -78 19 -125 8 -54 17 -109 26 -160 5 -27 12 -67 15 -89 3 -21 7
-42 10 -46 3 -5 7 -21 9 -37 5 -34 22 -119 30 -153 4 -14 9 -38 11 -55 13 -72
78 -319 109 -415 57 -174 92 -253 130 -294 23 -23 32 -27 59 -22 17 3 34 11
37 16 10 16 73 37 100 33 88 -13 93 -1 86 162 -3 72 -8 141 -11 155 -3 14 -7
39 -9 55 -3 17 -7 44 -10 60 -8 54 -18 115 -21 138 -2 12 -6 42 -9 67 -3 25
-10 70 -16 100 -5 30 -11 71 -14 90 -13 93 -19 137 -22 155 -3 11 -7 43 -10
70 -3 28 -7 57 -10 65 -3 8 -8 33 -10 55 -2 22 -9 69 -14 105 -10 64 -13 83
-26 185 -3 28 -7 59 -9 70 -1 11 -6 49 -10 85 -4 36 -9 76 -11 90 -1 14 -6 50
-9 80 -3 30 -8 71 -10 90 -6 48 -18 190 -19 218 0 12 -3 22 -8 22 -4 0 -5 7
-2 15 5 11 26 -1 88 -52 44 -37 90 -75 101 -85 11 -9 49 -41 85 -70 36 -29 72
-59 80 -65 135 -113 186 -153 192 -153 14 0 9 -30 -13 -73 -12 -23 -24 -44
-28 -47 -3 -3 -11 -18 -18 -35 -6 -16 -25 -62 -41 -102 -29 -68 -69 -196 -78
-252 -3 -14 -7 -33 -9 -41 -3 -8 -8 -38 -11 -65 -3 -28 -8 -61 -10 -75 -5 -39
-5 -292 1 -320 2 -14 7 -45 10 -70 21 -176 101 -357 206 -472 93 -100 230
-161 359 -160 167 1 429 30 522 58 9 3 25 6 35 8 81 16 223 62 300 97 23 10
46 19 51 19 19 0 179 94 259 152 51 36 88 56 95 52 15 -9 371 -277 378 -284 9
-10 122 -84 169 -112 130 -76 75 -4 -242 315 -203 204 -208 212 -174 250 38
41 101 172 123 252 11 43 18 103 18 155 0 117 -4 136 -55 270 -40 106 -154
241 -284 340 -33 25 -61 48 -63 53 -2 4 -10 7 -18 7 -8 0 -14 3 -14 8 0 4 -10
12 -23 18 -53 25 -183 98 -188 106 -12 18 9 88 37 125 46 60 41 83 -28 133
-37 27 -177 87 -223 96 -11 2 -33 6 -48 10 -95 20 -273 20 -364 -1 -13 -3 -32
-7 -44 -10 -43 -9 -66 -17 -136 -47 -40 -17 -73 -35 -73 -39 0 -5 -3 -8 -7 -7
-8 2 -49 -18 -67 -33 -40 -33 -90 -69 -95 -69 -4 0 -20 13 -37 28 -28 27 -222
203 -293 267 -19 16 -47 41 -62 55 -15 14 -58 53 -96 87 -38 34 -83 74 -100
90 -16 15 -51 47 -76 69 -25 23 -44 43 -42 46 5 4 31 4 235 -7 63 -3 167 -8
230 -11 63 -2 160 -7 215 -9 55 -3 153 -7 219 -9 65 -3 121 -7 123 -10 3 -3
14 -1 24 5 11 5 19 6 19 2 0 -8 116 -14 312 -17 49 0 88 -5 88 -9 0 -4 8 -3
19 2 10 6 21 8 24 5 3 -4 59 -8 124 -9 65 -2 226 -7 358 -11 323 -10 1078 -11
1190 -1 103 9 151 16 215 32 54 14 69 48 44 96 -18 36 -18 79 2 107 22 32 25
60 8 76 -15 16 -93 40 -164 51 -25 4 -54 9 -65 11 -11 2 -45 6 -75 9 -30 3
-71 8 -90 11 -42 6 -145 14 -365 29 -33 2 -89 6 -125 9 -78 7 -195 15 -310 21
-47 3 -119 7 -160 10 -41 3 -133 7 -205 10 -71 3 -170 8 -220 10 -102 5 -341
15 -490 20 -55 2 -163 6 -240 9 -77 3 -219 9 -315 12 -96 3 -215 7 -265 9
-469 18 -461 18 -471 28 -4 4 -8 46 -10 94 -1 49 -3 88 -4 88 -1 0 -3 36 -5
80 -2 44 -6 127 -9 185 -3 58 -8 173 -11 255 -3 83 -8 202 -11 265 -2 63 -7
187 -9 275 -2 88 -7 277 -10 420 -12 468 -13 530 -9 546 4 14 22 17 117 19
138 2 287 6 572 15 121 3 303 8 405 11 102 2 235 6 295 9 61 3 157 7 215 9 58
3 152 8 210 11 58 4 119 8 135 8 17 1 33 6 37 12 5 6 8 5 8 -3 0 -7 4 -11 8
-8 8 5 67 9 292 21 52 3 125 8 161 11 37 2 124 7 195 9 71 3 129 5 129 6 0 3
331 5 337 2 9 -5 382 -17 416 -14 26 2 10 18 -45 45 -32 16 -59 28 -61 27 -1
-1 -18 5 -37 13 -19 8 -35 13 -35 11 0 -3 -12 0 -27 6 -16 6 -36 13 -45 15
-58 13 -104 23 -143 29 -11 2 -54 8 -95 15 -41 7 -93 14 -115 16 -22 2 -58 6
-80 9 -52 7 -176 15 -293 20 -52 2 -96 6 -99 9 -3 3 -13 1 -23 -4 -10 -5 -20
-6 -24 -2 -7 6 -84 9 -337 11 -89 1 -97 3 -108 24 -30 56 -155 241 -208 307
-6 8 -33 44 -60 80 -26 36 -50 67 -53 70 -3 3 -25 32 -50 65 -25 33 -49 63
-55 67 -12 9 33 58 52 58 8 0 11 5 8 10 -3 6 0 10 7 10 7 0 26 11 42 25 16 14
32 25 35 25 3 0 19 11 35 25 16 13 51 39 77 56 27 17 49 35 49 40 0 5 4 9 10
9 5 0 18 6 27 14 10 8 74 59 143 112 69 54 127 100 130 104 3 3 14 13 26 21
55 37 218 183 283 252 85 91 92 134 33 218 -21 30 -44 68 -52 84 -35 73 -47
84 -93 80 -23 -2 -55 -8 -72 -15 -54 -21 -100 -44 -113 -57 -7 -7 -19 -13 -27
-13 -7 0 -15 -3 -17 -8 -1 -4 -28 -24 -58 -44 -59 -38 -192 -138 -250 -187
-19 -17 -57 -49 -85 -71 -74 -61 -146 -122 -171 -145 -12 -11 -38 -33 -59 -50
-20 -16 -51 -43 -69 -60 -81 -73 -150 -130 -157 -129 -24 3 -28 5 -33 22 -3 9
-19 33 -36 52 -16 19 -30 38 -30 42 0 4 -7 14 -16 22 -34 35 -384 554 -384
571 0 2 -29 48 -64 102 -99 154 -136 176 -231 142 -27 -10 -68 -21 -90 -24
-82 -14 -104 -25 -114 -58 -12 -46 -4 -132 19 -207 24 -74 137 -311 154 -322
6 -4 7 -8 1 -8 -6 0 -5 -4 1 -8 6 -4 33 -40 59 -81 27 -41 54 -82 61 -90 7 -9
36 -45 64 -81 109 -140 156 -195 224 -267 32 -34 65 -71 72 -81 15 -21 16 -19
-81 -97 -27 -22 -52 -43 -55 -46 -28 -31 -265 -197 -398 -279 -110 -67 -132
-84 -132 -103 0 -38 114 -60 230 -43 65 10 78 13 145 31 33 10 65 18 70 20 6
1 23 7 38 13 16 7 30 12 32 12 5 0 157 69 175 79 8 5 70 37 137 72 133 68 129
68 188 13 73 -68 161 -141 300 -249 61 -47 121 -93 134 -104 24 -19 23 -19
-150 -15 -96 2 -262 6 -369 9 -107 3 -248 7 -312 8 -65 1 -118 5 -118 9 0 4
-13 3 -29 -2 -16 -4 -31 -6 -34 -4 -4 4 -247 12 -564 18 -73 1 -136 6 -140 10
-4 4 -8 55 -8 114 -1 60 -4 113 -8 119 -4 7 -3 14 2 18 7 4 7 15 1 31 -6 14
-7 23 -2 20 4 -2 6 12 5 32 -2 21 -5 120 -8 222 -9 361 -19 639 -30 840 -2 36
-6 109 -9 162 -6 99 -9 141 -22 258 -4 36 -7 79 -8 95 -1 17 -4 35 -7 40 -4 6
-5 20 -4 33 1 12 -2 22 -7 22 -5 0 -6 5 -3 10 3 6 3 16 -2 23 -8 12 -9 17 -12
37 0 5 -7 7 -15 4 -12 -4 -24 -36 -30 -79 -1 -5 -5 -23 -8 -40 -8 -33 -19
-112 -23 -160 -2 -16 -6 -57 -10 -90 -3 -33 -8 -78 -10 -100 -1 -22 -6 -76 -9
-120 -4 -44 -9 -108 -12 -142 -3 -35 -7 -86 -9 -115 -5 -77 -15 -196 -20 -253
-3 -27 -8 -86 -11 -130 -3 -44 -7 -105 -9 -135 -2 -30 -7 -107 -10 -170 -4
-63 -8 -137 -10 -165 -2 -27 -6 -102 -10 -165 -4 -63 -9 -131 -10 -150 -2 -19
-4 -41 -4 -49 -1 -11 -51 -12 -298 -6 -164 3 -410 8 -548 10 -137 2 -389 7
-560 10 -170 3 -501 8 -735 11 -583 8 -588 8 -594 15 -4 3 -9 66 -11 140 -3
74 -8 190 -11 259 -3 69 -7 179 -9 245 -6 171 -15 358 -20 440 -3 39 -7 111
-10 160 -15 285 -15 285 -31 455 -11 118 -29 272 -40 335 -24 140 -56 226 -90
239 -8 3 -32 -1 -52 -10 -56 -24 -70 -25 -118 -8 -32 11 -49 12 -64 4 -22 -12
-42 -75 -44 -137 -1 -24 -4 -43 -7 -43 -3 0 -7 -39 -9 -87 -5 -147 -5 -853 0
-853 3 0 5 -61 5 -136 0 -75 3 -138 6 -140 4 -2 3 -22 -1 -44 -4 -21 -5 -42
-3 -44 3 -3 7 -58 8 -123 4 -130 15 -420 16 -431 6 -39 -7 -40 -46 -4 -17 15
-68 59 -115 99 -47 39 -94 80 -105 90 -11 10 -54 47 -95 83 -41 36 -77 67 -80
70 -3 3 -34 30 -70 60 -117 99 -113 94 -117 152 -4 84 -34 204 -75 298 -24 56
-88 180 -98 190 -11 11 -50 69 -50 75 0 7 -104 134 -163 199 l-45 50 14 39 c8
22 14 47 14 56 0 10 14 39 31 66 38 59 40 92 8 117 -13 11 -31 24 -39 31 -15
12 -97 51 -112 53 -4 1 -9 2 -10 4 -2 1 -10 3 -18 6 -208 57 -425 38 -611 -55
l-80 -40 -157 157 c-86 87 -198 202 -248 257 -159 173 -184 202 -184 215 0 6
-4 10 -8 10 -9 0 -152 186 -152 197 0 4 -8 16 -18 27 -25 29 -122 184 -122
196 0 6 -4 10 -9 10 -5 0 -16 15 -25 33 -22 43 -62 87 -80 87 -9 0 -32 -15
-51 -34z m1686 -1485 c10 -13 19 -29 19 -37 0 -8 4 -14 9 -14 5 0 11 -8 14
-17 4 -10 18 -36 31 -58 14 -22 33 -57 42 -77 9 -21 20 -38 25 -38 5 0 8 -3 7
-7 -1 -5 17 -47 39 -95 36 -75 67 -158 59 -158 -2 0 -14 9 -27 21 -13 11 -37
30 -53 42 -82 62 -426 404 -426 423 0 14 15 20 70 29 19 3 35 7 36 8 1 1 32 2
69 2 58 0 69 -3 86 -24z m-542 -416 c31 -30 106 -103 167 -162 157 -152 284
-268 284 -259 0 3 12 -8 28 -22 15 -15 54 -49 86 -77 l59 -49 -49 -13 c-86
-23 -145 -28 -319 -27 -164 0 -172 1 -226 27 -61 29 -108 85 -135 159 -21 58
-25 245 -6 323 7 33 15 65 16 70 1 6 4 15 7 20 4 6 9 22 13 38 3 15 9 27 12
27 4 0 32 -25 63 -55z m4965 -1695 c-2 -120 -13 -505 -15 -505 -5 0 -9 -323
-10 -867 -1 -368 -4 -668 -6 -668 -2 0 -10 6 -17 13 -7 6 -44 39 -81 72 -38
33 -83 74 -101 90 -17 17 -60 55 -94 85 -35 30 -80 71 -101 90 -21 19 -64 58
-95 85 -31 28 -74 66 -95 85 -20 19 -65 60 -100 90 -35 30 -83 73 -107 96
l-45 41 34 23 c19 14 39 29 44 35 6 6 37 31 70 55 103 76 285 267 285 299 0 6
4 11 8 11 12 0 58 107 74 170 12 45 17 180 8 200 -1 3 -2 8 -1 12 1 11 -40
142 -49 153 -5 6 -9 12 -9 15 -3 20 -27 70 -33 70 -4 0 -8 5 -8 11 0 22 -145
227 -223 314 -19 22 -34 42 -32 46 3 3 102 7 222 8 120 1 218 3 219 4 1 1 60
2 131 2 l128 0 -1 -135z m-822 50 c98 -202 136 -288 184 -415 22 -61 34 -175
23 -230 -9 -42 -61 -115 -121 -169 -67 -61 -240 -180 -350 -240 l-68 -38 -29
29 c-15 15 -40 37 -53 48 -14 11 -58 49 -98 85 -40 36 -81 72 -92 81 -10 9
-49 44 -86 76 -37 33 -83 74 -102 91 -19 17 -33 32 -30 35 15 14 150 96 178
108 17 8 32 17 32 20 0 3 6 6 13 6 6 1 39 10 71 22 33 12 61 19 64 16 3 -2 13
0 22 5 10 5 34 12 53 14 20 2 44 7 54 10 10 3 34 8 53 10 127 18 248 50 279
74 28 20 30 37 19 137 -3 28 -1 62 5 78 24 72 -12 99 -163 124 -50 7 -267 9
-335 2 -66 -7 -159 -21 -182 -28 -2 -1 -4 -1 -5 0 -9 2 -163 -58 -213 -83 -77
-39 -179 -100 -183 -110 -2 -4 -8 -8 -13 -8 -6 0 -31 -16 -56 -35 -44 -34 -78
-44 -85 -27 -1 5 -37 37 -78 72 -41 35 -77 67 -80 70 -3 3 -39 34 -80 70 -103
89 -178 163 -159 157 9 -3 22 0 28 6 8 8 11 8 11 -2 0 -7 4 -10 9 -7 5 4 290
9 632 12 343 3 624 6 625 7 1 1 62 2 136 2 l133 1 37 -76z m-1812 -381 c19
-17 55 -48 80 -68 25 -20 52 -43 60 -51 8 -9 40 -35 70 -60 114 -92 125 -106
113 -132 -25 -50 -65 -144 -68 -158 -2 -8 -11 -37 -20 -65 -10 -31 -18 -96
-20 -175 -4 -103 -1 -138 16 -200 56 -208 180 -349 370 -424 35 -14 78 -28 94
-32 54 -11 219 -13 280 -3 70 11 226 57 240 70 5 5 17 9 27 9 10 0 18 5 18 10
0 6 8 10 18 10 10 0 22 4 28 9 5 5 31 21 57 36 l48 26 52 -40 c29 -22 61 -48
72 -58 11 -10 45 -38 75 -63 30 -25 57 -47 60 -50 5 -5 113 -96 138 -115 7 -5
30 -26 51 -45 21 -19 53 -46 71 -60 18 -14 49 -40 69 -58 l36 -33 -250 6
c-137 3 -324 8 -415 11 -91 2 -264 7 -385 9 -121 3 -348 8 -505 11 -157 3
-333 7 -392 7 -60 1 -108 4 -109 7 -1 3 -3 165 -5 360 -4 415 -11 801 -14 815
-1 6 -1 12 0 15 7 19 7 41 -1 45 -4 3 -4 16 1 29 5 13 6 26 4 29 -9 8 -14 407
-6 407 4 0 23 -14 42 -31z m750 -639 c3 -3 28 -23 55 -44 28 -22 55 -44 60
-50 6 -6 42 -37 80 -68 92 -75 125 -104 125 -111 0 -10 -35 -19 -115 -31 -93
-14 -164 -5 -210 27 -29 21 -61 57 -58 67 1 3 -3 11 -9 17 -6 7 -8 19 -5 28 4
8 3 17 -2 19 -9 6 2 101 19 151 12 36 12 36 33 18 12 -10 24 -20 27 -23z
m4068 -2537 c100 -67 177 -129 247 -198 96 -94 175 -198 175 -230 0 -7 4 -16
9 -19 23 -15 40 -148 27 -216 -9 -48 -63 -154 -92 -181 l-24 -23 -42 40 c-23
21 -53 50 -68 64 -14 14 -73 68 -130 120 -57 52 -121 111 -141 130 -20 19 -79
73 -130 120 -51 47 -105 96 -119 110 -51 48 -231 213 -255 234 -14 12 -25 27
-25 34 0 22 140 85 220 98 19 3 36 7 38 9 1 1 39 3 84 4 l81 2 145 -98z m-673
-289 c38 -31 72 -59 75 -62 3 -4 12 -11 21 -17 9 -5 63 -48 120 -95 57 -47
112 -92 123 -100 10 -8 38 -31 61 -50 23 -19 57 -47 76 -62 19 -15 88 -71 154
-124 66 -53 133 -107 149 -120 17 -13 33 -24 38 -24 4 0 8 -7 8 -15 0 -8 6
-14 13 -12 6 1 12 -5 12 -13 0 -19 -93 -66 -220 -110 -61 -22 -76 -26 -129
-36 -16 -2 -33 -7 -37 -9 -4 -3 -22 -7 -40 -10 -19 -2 -43 -6 -54 -9 -20 -4
-119 -16 -185 -21 -19 -2 -91 -4 -159 -5 -116 -1 -125 0 -148 22 -21 20 -50
72 -57 103 -1 6 -5 19 -9 30 -16 49 -20 89 -22 225 -2 81 2 153 7 164 6 11 6
16 0 13 -8 -6 1 47 16 93 2 8 6 24 8 35 9 53 28 110 55 172 11 24 24 54 29 68
5 14 13 25 17 25 5 0 39 -25 78 -56z"/>
<path d="M4034 8460 c-18 -4 -45 -16 -60 -27 -27 -19 -125 -71 -141 -75 -18
-4 -43 -36 -46 -58 -6 -40 46 -196 72 -220 4 -3 13 -18 21 -35 8 -16 18 -32
21 -35 3 -3 20 -26 37 -52 18 -25 38 -52 44 -60 7 -7 25 -29 39 -48 24 -31 67
-79 194 -217 l41 -43 -61 -63 c-89 -94 -107 -116 -148 -183 -41 -65 -48 -88
-51 -149 -1 -35 2 -40 22 -43 13 -2 106 37 230 98 114 56 217 106 229 112 25
12 20 15 144 -77 53 -38 106 -77 119 -85 12 -8 39 -26 59 -40 173 -122 448
-252 554 -263 32 -4 40 -1 46 17 5 11 6 28 3 36 -8 23 -67 112 -96 145 -15 17
-41 47 -59 68 -18 21 -45 53 -62 71 -56 61 -230 249 -242 262 -7 7 -13 17 -13
23 0 6 -4 11 -10 11 -33 0 9 34 55 45 12 3 239 107 280 129 17 9 35 16 42 16
6 0 13 3 15 8 2 4 30 20 63 37 86 42 223 128 274 172 60 51 101 110 101 145 0
25 -28 80 -50 98 -4 3 -25 32 -47 65 -56 83 -77 100 -121 98 -34 -2 -135 -40
-239 -92 -23 -12 -47 -21 -53 -21 -5 0 -10 -4 -10 -8 0 -5 -20 -17 -45 -28
-25 -10 -45 -22 -45 -28 0 -5 -3 -7 -6 -3 -3 3 -23 -4 -43 -17 -20 -13 -63
-38 -96 -56 -33 -18 -72 -40 -87 -49 -44 -26 -231 -140 -261 -158 -30 -20 -28
-21 -120 91 -18 22 -46 55 -63 75 -17 20 -77 95 -135 166 -174 218 -225 260
-295 245z"/>
<path d="M2545 6008 c-55 -22 -104 -40 -110 -42 -61 -19 -882 -429 -962 -482
-13 -8 -23 -12 -23 -9 0 4 -7 -1 -16 -10 -9 -9 -22 -15 -29 -13 -21 5 -127
140 -220 280 -110 167 -130 180 -230 165 -22 -4 -71 -9 -110 -12 -85 -6 -105
-12 -105 -31 0 -8 -4 -14 -8 -14 -4 0 -9 -10 -10 -22 -4 -28 -5 -71 -2 -78 0
-3 3 -23 4 -46 9 -114 114 -318 233 -453 29 -33 30 -37 16 -53 -9 -10 -20 -18
-24 -18 -8 0 -215 -146 -237 -167 -7 -7 -17 -13 -20 -13 -4 0 -21 -12 -38 -27
-17 -16 -55 -48 -85 -73 -79 -67 -198 -190 -228 -235 -14 -22 -29 -42 -32 -45
-15 -12 -58 -108 -63 -139 -7 -46 2 -63 27 -55 18 6 103 57 203 122 10 6 26
15 34 19 8 3 27 15 43 25 15 11 27 16 27 13 0 -3 12 2 28 13 15 11 45 28 67
38 22 10 46 24 53 31 8 7 18 11 23 8 5 -4 9 -1 9 4 0 6 5 11 10 11 6 0 61 24
123 54 62 30 135 64 162 75 28 12 59 26 70 31 101 46 159 70 165 70 5 0 145
-91 311 -202 274 -181 416 -283 459 -327 42 -43 130 -111 152 -116 22 -6 27
-2 36 22 12 37 7 102 -16 178 -41 136 -155 290 -394 533 -60 61 -98 106 -92
111 5 5 56 29 114 54 58 25 134 59 170 75 134 62 185 85 190 86 15 4 323 160
365 186 28 17 57 33 65 37 17 7 109 72 127 90 7 6 23 20 36 30 31 25 66 76 71
104 3 22 -8 57 -23 69 -13 11 -50 69 -74 116 -14 28 -32 56 -40 63 -25 20 -97
9 -202 -31z"/>
<path d="M8275 5894 c-172 -27 -305 -80 -475 -187 -36 -23 -67 -44 -70 -47 -3
-3 -30 -24 -61 -47 -77 -59 -269 -260 -269 -282 0 -5 -3 -11 -7 -13 -11 -4
-63 -85 -63 -96 0 -5 -8 -20 -18 -33 -18 -24 -47 -94 -77 -184 -17 -49 -24
-214 -12 -260 15 -59 64 -143 108 -186 42 -41 99 -81 119 -84 3 0 10 -3 15 -7
37 -23 247 -40 275 -23 6 3 10 2 10 -3 0 -6 27 -2 60 8 33 10 60 17 60 15 0
-2 38 9 84 25 201 68 506 253 653 396 18 17 47 44 65 60 46 41 130 139 172
202 46 69 99 179 91 191 -3 5 -1 12 5 16 13 8 13 89 0 137 -6 21 -27 51 -50
72 -39 35 -48 51 -32 58 16 7 52 67 52 87 0 23 -74 101 -95 101 -8 0 -15 4
-17 8 -5 15 -129 60 -198 72 -90 17 -230 19 -325 4z m535 -418 c0 -64 -141
-214 -295 -314 -38 -25 -72 -48 -75 -51 -6 -7 -83 -49 -180 -98 -41 -21 -78
-42 -82 -48 -4 -5 -8 -7 -8 -3 0 4 -15 -1 -32 -11 -30 -16 -90 -39 -121 -45
-7 -2 -25 -8 -42 -15 -16 -7 -42 -15 -58 -18 -15 -3 -30 -9 -33 -14 -2 -4 -11
-6 -19 -3 -8 3 -20 2 -27 -2 -19 -12 -81 -18 -155 -15 -39 1 -41 11 -13 74 40
89 155 226 265 313 27 21 55 44 61 49 6 6 28 19 50 30 21 11 41 23 44 26 6 8
68 40 75 39 3 0 18 6 34 15 114 59 284 83 532 76 14 -1 34 6 45 14 24 18 34
19 34 1z"/>
<path d="M1150 3352 c-21 -26 -22 -31 -25 -122 -4 -142 110 -380 253 -526 12
-13 22 -27 22 -32 0 -5 -35 -36 -77 -68 -99 -74 -82 -60 -198 -156 -55 -45
-141 -124 -191 -175 -91 -93 -194 -231 -194 -258 0 -8 -5 -15 -12 -15 -6 0 -9
-2 -6 -6 3 -3 0 -24 -7 -47 -21 -72 3 -91 63 -51 15 10 39 25 55 34 15 8 72
43 127 78 55 34 103 62 106 62 3 0 18 8 32 19 15 10 97 54 182 97 85 44 157
82 158 87 2 4 7 7 12 7 4 0 65 27 134 61 71 34 131 57 138 53 7 -4 57 -36 110
-71 54 -34 102 -63 107 -63 5 0 11 -4 13 -8 3 -9 116 -79 221 -136 37 -20 82
-45 100 -55 48 -26 243 -125 312 -156 94 -44 150 -37 140 16 -7 33 -51 121
-73 145 -10 11 -21 25 -23 31 -10 28 -234 259 -418 431 -35 33 -60 65 -57 70
3 6 20 13 36 17 17 4 30 11 30 16 0 5 3 8 8 7 6 -2 179 67 272 109 19 9 41 16
48 16 6 0 12 4 12 9 0 4 6 8 14 8 8 0 41 11 73 24 32 13 119 47 193 76 185 71
270 112 300 144 21 23 25 37 25 92 1 36 -3 68 -7 70 -5 3 -6 10 -2 15 8 13 13
110 6 127 -14 38 -147 60 -245 41 -28 -6 -70 -13 -92 -15 -21 -3 -43 -8 -47
-10 -5 -3 -20 -8 -35 -10 -15 -3 -32 -9 -39 -15 -6 -5 -13 -6 -16 -3 -6 5
-181 -58 -335 -121 -86 -36 -395 -188 -483 -239 -25 -14 -50 -26 -57 -26 -7 0
-35 28 -64 63 -28 34 -60 72 -70 85 -10 12 -19 25 -19 28 0 3 -11 20 -25 38
-14 18 -25 38 -25 44 0 6 -3 12 -8 14 -4 2 -24 29 -45 61 -42 64 -82 106 -100
108 -7 1 -74 3 -150 4 -136 2 -138 2 -157 -23z"/>
<path d="M5062 3170 c5 -17 14 -33 19 -36 5 -3 9 -12 9 -20 0 -8 -4 -12 -10
-9 -21 13 -316 4 -341 -11 -3 -2 -19 -5 -35 -8 -16 -3 -56 -15 -89 -26 -33
-11 -68 -22 -77 -25 -63 -15 -282 -141 -373 -215 -124 -101 -270 -277 -338
-405 -34 -65 -77 -165 -71 -165 3 0 0 -8 -5 -18 -30 -56 -54 -307 -37 -387 3
-11 8 -41 12 -67 3 -27 10 -48 13 -48 4 0 7 -9 8 -19 2 -21 71 -169 88 -187 5
-7 19 -24 30 -40 35 -49 69 -88 104 -119 19 -16 39 -35 45 -40 32 -31 126 -88
166 -100 76 -23 114 -29 213 -30 64 -1 117 2 117 5 0 4 10 6 23 5 12 -1 40 2
62 7 72 15 295 91 295 100 0 4 7 8 15 8 32 0 270 127 388 208 26 17 67 45 91
62 63 43 250 230 230 230 -3 0 4 11 15 25 25 32 68 144 80 208 5 26 7 96 5
155 -2 100 -6 128 -18 170 -3 9 -7 28 -10 42 -2 14 -10 39 -17 55 -6 17 -13
37 -15 45 -4 22 -99 211 -117 235 -14 18 -14 23 4 52 12 19 18 41 15 51 -12
35 -112 120 -192 161 -43 23 -101 61 -128 86 -50 46 -137 95 -167 95 -16 0
-17 -4 -7 -30z m108 -514 c52 -7 152 -26 173 -32 16 -5 36 -37 43 -71 1 -6 7
-27 13 -46 21 -64 38 -185 35 -255 -8 -206 -81 -294 -369 -444 -71 -38 -137
-71 -145 -74 -8 -3 -31 -12 -50 -19 -82 -31 -70 -27 -130 -44 -25 -7 -49 -16
-55 -19 -5 -4 -19 -8 -30 -9 -11 -2 -47 -10 -80 -18 -57 -14 -172 -21 -205
-12 -57 15 -126 82 -167 162 -65 127 -45 289 56 450 47 76 61 93 136 167 58
57 213 168 234 168 6 0 11 5 11 12 0 6 3 9 6 5 4 -3 23 2 43 12 40 20 135 53
166 58 11 1 43 5 70 9 28 3 51 7 52 8 4 4 158 -2 193 -8z"/>
</g>
</svg>
